<svg xmlns="http://www.w3.org/2000/svg" viewBox="0 0 64 64" role="img" aria-label="Forros Cuenca">
  <rect width="64" height="64" rx="14" fill="#0f1013"/>
  <rect x="1" y="1" width="62" height="62" rx="13.2" fill="none" stroke="#2a2b31" stroke-width="2"/>
  <!-- arco de estrellas del escudo -->
  <g fill="#ef2b36">
    <circle cx="19" cy="17.6" r="1.9"/>
    <circle cx="26" cy="15.3" r="2.1"/>
    <circle cx="33.5" cy="14.6" r="2.3"/>
    <circle cx="41" cy="15.3" r="2.1"/>
    <circle cx="48" cy="17.6" r="1.9"/>
  </g>
  <!-- monograma -->
  <path d="M13 47V23.5h17.4v5.6H19.6v4.1h9.9v5.6h-9.9V47z" fill="#ffffff"/>
  <path d="M50.8 30.7a9.2 9.2 0 0 0-6.2-2.3c-3.6 0-6 2.4-6 6.4s2.4 6.4 6 6.4a9.2 9.2 0 0 0 6.2-2.3v6.6a13.6 13.6 0 0 1-6.9 1.8c-7.3 0-11.9-4.7-11.9-12.5s4.6-12.5 11.9-12.5a13.6 13.6 0 0 1 6.9 1.8z" fill="#c1121f"/>
</svg>
