<?xml version="1.0" encoding="UTF-8" standalone="no"?>
<!-- Created with Inkscape (http://www.inkscape.org/) -->

<svg
   version="1.1"
   id="svg1"
  
  
   viewBox="-21.669 -21.669 1126.771 1041.179"
   sodipodi:docname="b28635de3fa5086fc39bd1e474ac20b2.svg"
   inkscape:version="1.4 (86a8ad7, 2024-10-11)"
   xmlns:inkscape="http://www.inkscape.org/namespaces/inkscape"
   xmlns:sodipodi="http://sodipodi.sourceforge.net/DTD/sodipodi-0.dtd"
   xmlns="http://www.w3.org/2000/svg"
   xmlns:svg="http://www.w3.org/2000/svg">
  <defs
     id="defs1" />
  <sodipodi:namedview
     id="namedview1"
     pagecolor="#ffffff"
     bordercolor="#000000"
     borderopacity="0.25"
     inkscape:showpageshadow="2"
     inkscape:pageopacity="0.0"
     inkscape:pagecheckerboard="0"
     inkscape:deskcolor="#d1d1d1"
     inkscape:zoom="0.40791269"
     inkscape:cx="469.46321"
     inkscape:cy="578.55518"
     inkscape:window-width="1368"
     inkscape:window-height="842"
     inkscape:window-x="-6"
     inkscape:window-y="-6"
     inkscape:window-maximized="1"
     inkscape:current-layer="g1" />
  <g
     inkscape:groupmode="layer"
     inkscape:label="Image"
     id="g1"
     transform="translate(-315.57086,-155.41554)">
    <g
       id="g77"
       transform="translate(49.0301,-99.726242)">
      <path
         style="fill:#d2181d"
         d="m 1126,1251.9255 c -1.9579,-0.5687 -1.4827,-0.7478 2.191,-0.8258 2.58,-0.055 4.9506,0.3204 5.268,0.8339 0.6618,1.0709 -3.7606,1.0661 -7.459,-0.01 z m 111.5618,-0.025 c 0.3059,-0.495 2.4422,-0.8931 4.7472,-0.8847 2.8205,0.01 3.7341,0.3046 2.7938,0.9 -1.8331,1.1607 -8.2597,1.1476 -7.541,-0.015 z m -123.8001,-1.6073 c 1.2439,-0.2392 3.0439,-0.2301 4,0.02 0.956,0.2503 -0.062,0.446 -2.2617,0.4349 -2.2,-0.011 -2.9823,-0.2159 -1.7383,-0.4551 z m 140,0 c 1.2439,-0.2392 3.0439,-0.2301 4,0.02 0.956,0.2503 -0.062,0.446 -2.2617,0.4349 -2.2,-0.011 -2.9823,-0.2159 -1.7383,-0.4551 z m -146.9492,-0.9758 c 0.7219,-0.2889 1.5844,-0.2534 1.9167,0.079 0.3323,0.3323 -0.2584,0.5687 -1.3125,0.5253 -1.165,-0.048 -1.4019,-0.285 -0.6042,-0.6042 z m 154.9375,0.021 c 0.6875,-0.2774 1.8125,-0.2774 2.5,0 0.6875,0.2774 0.125,0.5044 -1.25,0.5044 -1.375,0 -1.9375,-0.227 -1.25,-0.5044 z m -159.4167,-1.0044 c 0.3667,-0.3666 0.9667,-0.3666 1.3334,0 0.3666,0.3667 0.067,0.6667 -0.6667,0.6667 -0.7333,0 -1.0333,-0.3 -0.6667,-0.6667 z m 164.4167,0 c 0.6875,-0.2774 1.8125,-0.2774 2.5,0 0.6875,0.2774 0.125,0.5044 -1.25,0.5044 -1.375,0 -1.9375,-0.227 -1.25,-0.5044 z M 1094.5,1247 c -1.3187,-0.5667 -1.4891,-0.8782 -0.5,-0.9144 0.825,-0.03 2.175,0.3812 3,0.9144 1.828,1.1813 0.2491,1.1813 -2.5,0 z m 178.8333,0.3333 c 0.3667,-0.3666 0.9667,-0.3666 1.3334,0 0.3666,0.3667 0.067,0.6667 -0.6667,0.6667 -0.7333,0 -1.0333,-0.3 -0.6667,-0.6667 z m 3,-1 c 0.3667,-0.3666 0.9667,-0.3666 1.3334,0 0.3666,0.3667 0.067,0.6667 -0.6667,0.6667 -0.7333,0 -1.0333,-0.3 -0.6667,-0.6667 z M 1090,1245.5 c 0,-0.275 0.225,-0.5 0.5,-0.5 0.275,0 0.5,0.225 0.5,0.5 0,0.275 -0.225,0.5 -0.5,0.5 -0.275,0 -0.5,-0.225 -0.5,-0.5 z m 189,0.1166 c 0,-0.2108 0.9006,-0.6189 2.0014,-0.9067 1.1007,-0.2879 1.7492,-0.1153 1.441,0.3834 -0.5383,0.8709 -3.4424,1.3124 -3.4424,0.5233 z M 1088,1244.5 c 0,-0.275 0.225,-0.5 0.5,-0.5 0.275,0 0.5,0.225 0.5,0.5 0,0.275 -0.225,0.5 -0.5,0.5 -0.275,0 -0.5,-0.225 -0.5,-0.5 z m -773,-1.2125 c 31.66806,-0.7037 57.7701,-0.7208 57.3467,-0.037 -0.2556,0.4125 -16.07568,0.6522 -35.15572,0.5327 C 318.11094,1243.6636 308.125,1243.4408 315,1243.288 Z m 177.75,-0.036 c 9.4875,-0.1644 25.0125,-0.1644 34.5,0 9.4875,0.1644 1.725,0.2988 -17.25,0.2988 -18.975,0 -26.7375,-0.1344 -17.25,-0.2988 z m 136.5654,-5e-4 c 10.34848,-0.1626 26.99848,-0.1624 37,6e-4 10.00153,0.163 1.5346,0.2961 -18.8154,0.2957 -20.35,-3e-4 -28.53307,-0.1336 -18.1846,-0.2963 z m 138.87058,9e-4 c 9.17729,-0.1649 24.47729,-0.1652 34,-7e-4 9.52271,0.1645 2.01402,0.2994 -16.68598,0.2998 -18.7,4e-4 -26.49131,-0.1342 -17.31402,-0.2991 z M 940,1243.2872 c 31.59535,-0.703 58.76994,-0.7204 58.34666,-0.037 -0.25558,0.4125 -16.30064,0.6522 -35.65568,0.5327 -19.35504,-0.1196 -29.56598,-0.3425 -22.69098,-0.4955 z m 145.3333,0.046 c 0.3667,-0.3666 0.9667,-0.3666 1.3334,0 0.3666,0.3667 0.067,0.6667 -0.6667,0.6667 -0.7333,0 -1.0333,-0.3 -0.6667,-0.6667 z m 199,0 c 0.3667,-0.3666 0.9667,-0.3666 1.3334,0 0.3666,0.3667 0.067,0.6667 -0.6667,0.6667 -0.7333,0 -1.0333,-0.3 -0.6667,-0.6667 z M 301.23993,1172.95 c -0.183,-53.8091 0.0448,-70.8347 0.96007,-71.75 0.66,-0.66 2.3475,-1.1468 3.75,-1.0817 2.36683,0.1098 2.3345,0.1644 -0.45,0.7597 -3,0.6414 -3,0.6414 -3.51007,71.6317 L 301.47986,1243.5 Z M 474,1242.5 c 0,-0.275 0.225,-0.5 0.5,-0.5 0.275,0 0.5,0.225 0.5,0.5 0,0.275 -0.225,0.5 -0.5,0.5 -0.275,0 -0.5,-0.225 -0.5,-0.5 z m 210.99981,-70.2003 c -0.2749,-39.1601 -0.15925,-70.8595 0.257,-70.4431 0.41624,0.4163 0.64116,32.4565 0.4998,71.2002 l -0.257,70.4432 z m 135.56448,69.4072 c 0.37553,-0.9862 0.93469,-1.5412 1.24258,-1.2334 0.30789,0.3079 6.4e-4,1.1148 -0.68278,1.7932 -0.98762,0.9802 -1.10248,0.8654 -0.5598,-0.5598 z m 104.89459,0.2266 c -0.36253,-0.5866 -0.44468,-1.281 -0.18255,-1.5432 0.26212,-0.2621 0.74306,0.2179 1.06875,1.0666 0.67618,1.7621 0.0998,2.072 -0.8862,0.4766 z m 156.94562,-0.088 c -0.4421,-0.7153 -0.2743,-0.8831 0.441,-0.441 0.635,0.3924 1.1545,0.912 1.1545,1.1545 0,0.8342 -0.8831,0.4392 -1.5955,-0.7135 z M 1287,1242.5704 c 0,-0.275 0.9,-0.9817 2,-1.5704 1.1,-0.5887 2,-0.8454 2,-0.5704 0,0.275 -0.9,0.9817 -2,1.5704 -1.1,0.5887 -2,0.8454 -2,0.5704 z M 545.4734,1172.5 c 10e-5,-38.5 0.12442,-54.1045 0.27626,-34.6767 0.15185,19.4278 0.15177,50.9278 -1.7e-4,70 -0.15195,19.0722 -0.27618,3.1767 -0.27609,-35.3233 z M 750,1241 c 0,-0.7333 0.3,-1.0333 0.66667,-0.6667 0.36666,0.3667 0.36666,0.9667 0,1.3334 C 750.3,1242.0333 750,1241.7333 750,1241 Z m 330,-0.5 c 0,-0.275 0.225,-0.5 0.5,-0.5 0.275,0 0.5,0.225 0.5,0.5 0,0.275 -0.225,0.5 -0.5,0.5 -0.275,0 -0.5,-0.225 -0.5,-0.5 z m -2.5955,-1.6545 c -0.4421,-0.7153 -0.2743,-0.8831 0.441,-0.441 1.1527,0.7124 1.5477,1.5955 0.7135,1.5955 -0.2425,0 -0.7621,-0.5195 -1.1545,-1.1545 z M 1292,1239.6224 c 0,-0.2076 0.7875,-0.9951 1.75,-1.75 1.5861,-1.2438 1.6214,-1.2085 0.3776,0.3776 -1.3064,1.6657 -2.1276,2.1955 -2.1276,1.3724 z m -368.59549,-1.7769 c -0.44208,-0.7153 -0.27432,-0.8831 0.44098,-0.441 0.63498,0.3924 1.15451,0.912 1.15451,1.1545 0,0.8342 -0.88305,0.4392 -1.59549,-0.7135 z M 1075,1236.5 c 0,-0.275 0.225,-0.5 0.5,-0.5 0.275,0 0.5,0.225 0.5,0.5 0,0.275 -0.225,0.5 -0.5,0.5 -0.275,0 -0.5,-0.225 -0.5,-0.5 z m 221,0.1871 c 0,-0.1721 1.4625,-1.6346 3.25,-3.25 3.25,-2.9371 3.25,-2.9371 0.3129,0.3129 -2.7378,3.0295 -3.5629,3.7097 -3.5629,2.9371 z m -374.59549,-1.8416 c -0.44208,-0.7153 -0.27432,-0.8831 0.44098,-0.441 1.15275,0.7124 1.54767,1.5955 0.71353,1.5955 -0.24254,0 -0.76207,-0.5195 -1.15451,-1.1545 z m 149.51979,-1.5955 c -2.4243,-2.75 -2.4243,-2.75 0.3257,-0.3257 2.5703,2.2659 3.2086,3.0757 2.4243,3.0757 -0.1791,0 -1.4166,-1.2375 -2.75,-2.75 z m -155.95846,-6 -5.46584,-5.75 5.75,5.4658 c 5.34193,5.078 6.20809,6.0342 5.46584,6.0342 -0.15629,0 -2.74379,-2.5875 -5.75,-5.75 z M 373.33621,1224 c 0,-4.125 0.17651,-5.8125 0.39226,-3.75 0.21574,2.0625 0.21574,5.4375 0,7.5 -0.21575,2.0625 -0.39226,0.375 -0.39226,-3.75 z m 100,-1 c 0,-4.125 0.17651,-5.8125 0.39226,-3.75 0.21574,2.0625 0.21574,5.4375 0,7.5 -0.21575,2.0625 -0.39226,0.375 -0.39226,-3.75 z m 593.53619,5.25 c -1.2438,-1.5861 -1.2085,-1.6214 0.3776,-0.3776 0.9625,0.7549 1.75,1.5424 1.75,1.75 0,0.8231 -0.8212,0.2933 -2.1276,-1.3724 z m 236.6389,-0.6269 c 0.9453,-1.4427 1.9078,-2.6231 2.1389,-2.6231 0.7234,0 -1.6049,3.854 -2.7593,4.5674 -0.6041,0.3734 -0.3249,-0.5016 0.6204,-1.9443 z m -239.0524,-2.6896 c -0.3626,-0.5866 -0.4447,-1.281 -0.1826,-1.5432 0.2622,-0.2621 0.7431,0.2179 1.0688,1.0666 0.6762,1.7621 0.1,2.072 -0.8862,0.4766 z M 1306,1223.5 c 0,-0.275 0.225,-0.5 0.5,-0.5 0.275,0 0.5,0.225 0.5,0.5 0,0.275 -0.225,0.5 -0.5,0.5 -0.275,0 -0.5,-0.225 -0.5,-0.5 z m -399.59501,-3.75 C 904.5,1217.5 904.5,1217.5 906.75,1219.405 c 2.11444,1.7902 2.70524,2.595 1.90499,2.595 -0.18976,0 -1.20226,-1.0125 -2.25,-2.25 z M 1063,1221.5 c 0,-0.275 0.225,-0.5 0.5,-0.5 0.275,0 0.5,0.225 0.5,0.5 0,0.275 -0.225,0.5 -0.5,0.5 -0.275,0 -0.5,-0.225 -0.5,-0.5 z m 244,0 c 0,-0.275 0.225,-0.5 0.5,-0.5 0.275,0 0.5,0.225 0.5,0.5 0,0.275 -0.225,0.5 -0.5,0.5 -0.275,0 -0.5,-0.225 -0.5,-0.5 z m -487,-2 c 0,-0.275 0.225,-0.5 0.5,-0.5 0.275,0 0.5,0.225 0.5,0.5 0,0.275 -0.225,0.5 -0.5,0.5 -0.275,0 -0.5,-0.225 -0.5,-0.5 z m 242,0 c 0,-0.275 0.225,-0.5 0.5,-0.5 0.275,0 0.5,0.225 0.5,0.5 0,0.275 -0.225,0.5 -0.5,0.5 -0.275,0 -0.5,-0.225 -0.5,-0.5 z m 246,0 c 0,-0.275 0.225,-0.5 0.5,-0.5 0.275,0 0.5,0.225 0.5,0.5 0,0.275 -0.225,0.5 -0.5,0.5 -0.275,0 -0.5,-0.225 -0.5,-0.5 z M 821.40249,1203 c 0,-8.525 0.15337,-12.0125 0.34082,-7.75 0.18745,4.2625 0.18745,11.2375 0,15.5 -0.18745,4.2625 -0.34082,0.775 -0.34082,-7.75 z m 80.46995,13.25 c -1.24387,-1.5861 -1.2085,-1.6214 0.37756,-0.3776 1.66575,1.3064 2.19548,2.1276 1.37244,2.1276 -0.20765,0 -0.99515,-0.7875 -1.75,-1.75 z M 1061,1217.5 c 0,-0.275 0.225,-0.5 0.5,-0.5 0.275,0 0.5,0.225 0.5,0.5 0,0.275 -0.225,0.5 -0.5,0.5 -0.275,0 -0.5,-0.225 -0.5,-0.5 z m 248.0856,-0.5 c -0.03,-0.825 0.3812,-2.175 0.9144,-3 1.1813,-1.828 1.1813,-0.2491 0,2.5 -0.5667,1.3187 -0.8782,1.4891 -0.9144,0.5 z m -935.83342,-4.5 c 0.0111,-2.2 0.21589,-2.9823 0.45508,-1.7383 0.23919,1.2439 0.23011,3.0439 -0.0202,4 -0.25029,0.956 -0.446,-0.062 -0.4349,-2.2617 z m 524.62026,0.75 c -1.24387,-1.5861 -1.2085,-1.6214 0.37756,-0.3776 0.9625,0.7549 1.75,1.5424 1.75,1.75 0,0.8231 -0.82119,0.2933 -2.12756,-1.3724 z m 161.75106,0.2113 c -0.3429,-0.8937 -0.595,-2.1506 -0.5601,-2.7931 0.035,-0.6425 0.4945,-0.09 1.0215,1.227 0.5269,1.3173 0.779,2.5742 0.5601,2.7931 -0.2188,0.2189 -0.6785,-0.3333 -1.0215,-1.227 z M 472.28601,1209.5 c 0.008,-2.75 0.20172,-3.7563 0.43157,-2.2363 0.22986,1.5201 0.22371,3.7701 -0.0136,5 -0.23736,1.23 -0.42542,-0.014 -0.41792,-2.7637 z m 422.1185,1.3455 c -0.44208,-0.7153 -0.27432,-0.8831 0.44098,-0.441 0.63498,0.3924 1.15451,0.912 1.15451,1.1545 0,0.8342 -0.88305,0.4392 -1.59549,-0.7135 z M 1311,1211 c 0,-0.7333 0.3,-1.0333 0.6667,-0.6667 0.3666,0.3667 0.3666,0.9667 0,1.3334 C 1311.3,1212.0333 1311,1211.7333 1311,1211 Z m -420.12756,-2.75 c -1.24387,-1.5861 -1.2085,-1.6214 0.37756,-0.3776 1.66575,1.3064 2.19548,2.1276 1.37244,2.1276 -0.20765,0 -0.99515,-0.7875 -1.75,-1.75 z m 279.91426,0.9297 c -0.9423,-0.3738 3.7827,-0.5512 10.5,-0.3942 17.3648,0.406 19.4626,0.9011 4.2133,0.9944 -7.15,0.044 -13.771,-0.2263 -14.7133,-0.6002 z m -18.0367,-0.8854 c 1.2375,-0.2384 3.2625,-0.2384 4.5,0 1.2375,0.2383 0.225,0.4333 -2.25,0.4333 -2.475,0 -3.4875,-0.195 -2.25,-0.4333 z M 1199,1208.5 c 0,-0.275 0.225,-0.5 0.5,-0.5 0.275,0 0.5,0.225 0.5,0.5 0,0.275 -0.225,0.5 -0.5,0.5 -0.275,0 -0.5,-0.225 -0.5,-0.5 z m 9,0 c 0,-0.275 0.225,-0.5 0.5,-0.5 0.275,0 0.5,0.225 0.5,0.5 0,0.275 -0.225,0.5 -0.5,0.5 -0.275,0 -0.5,-0.225 -0.5,-0.5 z m 5.8125,-0.1831 c 0.7219,-0.2889 1.5844,-0.2534 1.9167,0.079 0.3323,0.3323 -0.2584,0.5687 -1.3125,0.5253 -1.165,-0.048 -1.4019,-0.285 -0.6042,-0.6042 z m 3.9375,0.021 c 0.6875,-0.2774 1.8125,-0.2774 2.5,0 0.6875,0.2774 0.125,0.5044 -1.25,0.5044 -1.375,0 -1.9375,-0.227 -1.25,-0.5044 z M 1058.1949,1205.5 c 0.02,-1.65 0.2445,-2.2039 0.4981,-1.231 0.2535,0.973 0.2369,2.323 -0.037,3 -0.2739,0.6771 -0.4813,-0.119 -0.461,-1.769 z m 84.0551,1.8107 c 0.9625,-0.2516 2.5375,-0.2516 3.5,0 0.9625,0.2515 0.175,0.4573 -1.75,0.4573 -1.925,0 -2.7125,-0.2058 -1.75,-0.4573 z m 84.019,0 c 0.973,-0.2535 2.323,-0.2369 3,0.037 0.6771,0.2739 -0.119,0.4813 -1.769,0.461 -1.65,-0.02 -2.2039,-0.2445 -1.231,-0.4981 z m -852.19005,-1.8903 c 0.048,-1.165 0.28494,-1.4019 0.60416,-0.6042 0.28887,0.7219 0.25335,1.5844 -0.0789,1.9167 -0.33229,0.3323 -0.56864,-0.2584 -0.52522,-1.3125 z m 513.32556,0.4288 c -0.44208,-0.7153 -0.27432,-0.8831 0.44098,-0.441 1.15275,0.7124 1.54767,1.5955 0.71353,1.5955 -0.24254,0 -0.76207,-0.5195 -1.15451,-1.1545 z M 1137,1206 c -0.825,-0.5332 -1.05,-0.9694 -0.5,-0.9694 0.55,0 1.675,0.4362 2.5,0.9694 0.825,0.5332 1.05,0.9694 0.5,0.9694 -0.55,0 -1.675,-0.4362 -2.5,-0.9694 z m 95,0.5 c 0,-0.275 0.225,-0.5 0.5,-0.5 0.275,0 0.5,0.225 0.5,0.5 0,0.275 -0.225,0.5 -0.5,0.5 -0.275,0 -0.5,-0.225 -0.5,-0.5 z m 2,-1 c 0,-0.275 0.225,-0.5 0.5,-0.5 0.275,0 0.5,0.225 0.5,0.5 0,0.275 -0.225,0.5 -0.5,0.5 -0.275,0 -0.5,-0.225 -0.5,-0.5 z m 78,-0.5 c 0,-0.7333 0.3,-1.0333 0.6667,-0.6667 0.3666,0.3667 0.3666,0.9667 0,1.3334 C 1312.3,1206.0333 1312,1205.7333 1312,1205 Z m -428.12756,-1.75 c -1.24387,-1.5861 -1.2085,-1.6214 0.37756,-0.3776 1.66575,1.3064 2.19548,2.1276 1.37244,2.1276 -0.20765,0 -0.99515,-0.7875 -1.75,-1.75 z m 248.05186,-1 c -2.4243,-2.75 -2.4243,-2.75 0.3257,-0.3257 1.5125,1.3334 2.75,2.5709 2.75,2.75 0,0.7843 -0.8098,0.146 -3.0757,-2.4243 z M 1237.5,1203 c 0.9955,-1.1 2.035,-2 2.31,-2 0.275,0 -0.3145,0.9 -1.31,2 -0.9955,1.1 -2.035,2 -2.31,2 -0.275,0 0.3145,-0.9 1.31,-2 z m -766.5,0 c 0,-0.7333 0.3,-1.0333 0.66667,-0.6667 0.36666,0.3667 0.36666,0.9667 0,1.3334 C 471.3,1204.0333 471,1203.7333 471,1203 Z m -96,-0.7109 c 0,-0.5743 0.7875,-1.6618 1.75,-2.4167 1.61876,-1.2695 1.63998,-1.2224 0.28297,0.6276 -0.80687,1.1 -1.59437,2.1875 -1.75,2.4167 -0.15563,0.2291 -0.28297,-0.053 -0.28297,-0.6276 z m 937.8812,-2.5077 c 0.4603,-2.7769 0.6012,-2.9177 0.916,-0.9161 0.2047,1.301 -0.04,2.7776 -0.544,3.2815 -0.5547,0.5547 -0.7015,-0.3782 -0.372,-2.3654 z m -432.47669,1.0641 c -0.44208,-0.7153 -0.27432,-0.8831 0.44098,-0.441 1.15275,0.7124 1.54767,1.5955 0.71353,1.5955 -0.24254,0 -0.76207,-0.5195 -1.15451,-1.1545 z M 1057.1949,1199.5 c 0.02,-1.65 0.2445,-2.2039 0.4981,-1.231 0.2535,0.973 0.2369,2.323 -0.037,3 -0.2739,0.6771 -0.4813,-0.119 -0.461,-1.769 z m -587.79039,0.3455 c -0.44208,-0.7153 -0.27432,-0.8831 0.44098,-0.441 1.15275,0.7124 1.54767,1.5955 0.71353,1.5955 -0.24254,0 -0.76207,-0.5195 -1.15451,-1.1545 z m 408,-1 c -0.44208,-0.7153 -0.27432,-0.8831 0.44098,-0.441 0.63498,0.3924 1.15451,0.912 1.15451,1.1545 0,0.8342 -0.88305,0.4392 -1.59549,-0.7135 z M 1240.8097,1198.5 c 0.506,-1.1 1.1703,-2.675 1.4762,-3.5 0.4805,-1.2957 0.567,-1.2877 0.6352,0.059 0.043,0.8573 -0.6209,2.4323 -1.4763,3.5 -1.5302,1.91 -1.5404,1.9091 -0.6351,-0.059 z m -112.1862,-1.0387 c -0.9649,-2.5147 -0.6803,-3.1635 0.4986,-1.1363 0.5837,1.0038 0.8506,2.0357 0.5931,2.2931 -0.2575,0.2575 -0.7487,-0.2631 -1.0917,-1.1568 z M 379.5,1197 c 0.33992,-0.55 0.84303,-1 1.11803,-1 0.275,0 0.22189,0.45 -0.11803,1 -0.33992,0.55 -0.84303,1 -1.11803,1 -0.275,0 -0.22189,-0.45 0.11803,-1 z m 86.90451,-0.1545 c -0.44208,-0.7153 -0.27432,-0.8831 0.44098,-0.441 1.15275,0.7124 1.54767,1.5955 0.71353,1.5955 -0.24254,0 -0.76207,-0.5195 -1.15451,-1.1545 z M 872.5,1195.4124 c -3,-2.5777 -3,-2.5777 0.25,-0.4269 1.7875,1.1829 3.25,2.345 3.25,2.5826 0,0.7485 -0.42347,0.4877 -3.5,-2.1557 z m -470.25,-0.1613 c 11.4125,-0.1604 30.0875,-0.1604 41.5,0 11.4125,0.1605 2.075,0.2918 -20.75,0.2918 -22.825,0 -32.1625,-0.1313 -20.75,-0.2918 z m 465.15451,-3.4056 c -0.44208,-0.7153 -0.27432,-0.8831 0.44098,-0.441 1.15275,0.7124 1.54767,1.5955 0.71353,1.5955 -0.24254,0 -0.76207,-0.5195 -1.15451,-1.1545 z M 1127.232,1189 c 0,-1.925 0.2058,-2.7125 0.4573,-1.75 0.2516,0.9625 0.2516,2.5375 0,3.5 -0.2515,0.9625 -0.4573,0.175 -0.4573,-1.75 z m 116,0 c 0,-1.925 0.2058,-2.7125 0.4573,-1.75 0.2516,0.9625 0.2516,2.5375 0,3.5 -0.2515,0.9625 -0.4573,0.175 -0.4573,-1.75 z m -378.82749,0.8455 c -0.44208,-0.7153 -0.27432,-0.8831 0.44098,-0.441 0.63498,0.3924 1.15451,0.912 1.15451,1.1545 0,0.8342 -0.88305,0.4392 -1.59549,-0.7135 z M 1056.4168,1172.5 c 10e-4,-10.45 0.1492,-14.5891 0.3293,-9.1981 0.1802,5.3911 0.1794,13.9411 0,19 -0.1811,5.059 -0.3285,0.6481 -0.3276,-9.8019 z m -195.01229,15.3455 c -0.44208,-0.7153 -0.27432,-0.8831 0.44098,-0.441 0.63498,0.3924 1.15451,0.912 1.15451,1.1545 0,0.8342 -0.88305,0.4392 -1.59549,-0.7135 z m -3,-2 c -0.44208,-0.7153 -0.27432,-0.8831 0.44098,-0.441 0.63498,0.3924 1.15451,0.912 1.15451,1.1545 0,0.8342 -0.88305,0.4392 -1.59549,-0.7135 z m -4.54373,-2.9049 c -2.36078,-2.0593 -2.36078,-2.0593 0.38922,-0.3849 1.5125,0.9209 2.75,1.8476 2.75,2.0593 0,0.7809 -0.83549,0.3352 -3.13922,-1.6744 z M 1126.2997,1180 c 0,-3.025 0.1874,-4.2625 0.4166,-2.75 0.2291,1.5125 0.2291,3.9875 0,5.5 -0.2292,1.5125 -0.4166,0.275 -0.4166,-2.75 z M 822,1180.559 c 0,-1.8925 0.34578,-3.6547 0.7684,-3.9159 0.42263,-0.2612 0.60036,1.2873 0.39497,3.441 -0.46113,4.8354 -1.16337,5.1221 -1.16337,0.4749 z m 422.3946,-10.059 c 0,-7.7 0.1585,-10.7178 0.3488,-6.7062 0.1903,4.0115 0.189,10.3115 0,14 -0.1919,3.6884 -0.3476,0.4062 -0.346,-7.2938 z m 69.9908,1.5 c 0,-6.875 0.1597,-9.6875 0.355,-6.25 0.1953,3.4375 0.1953,9.0625 0,12.5 -0.1953,3.4375 -0.355,0.625 -0.355,-6.25 z m -464.98089,7.8455 c -0.44208,-0.7153 -0.27432,-0.8831 0.44098,-0.441 0.63498,0.3924 1.15451,0.912 1.15451,1.1545 0,0.8342 -0.88305,0.4392 -1.59549,-0.7135 z M 847,1178.5 c 0,-0.275 0.225,-0.5 0.5,-0.5 0.275,0 0.5,0.225 0.5,0.5 0,0.275 -0.225,0.5 -0.5,0.5 -0.275,0 -0.5,-0.225 -0.5,-0.5 z m -2.59549,-1.6545 c -0.44208,-0.7153 -0.27432,-0.8831 0.44098,-0.441 1.15275,0.7124 1.54767,1.5955 0.71353,1.5955 -0.24254,0 -0.76207,-0.5195 -1.15451,-1.1545 z m -3,-2 c -0.44208,-0.7153 -0.27432,-0.8831 0.44098,-0.441 1.15275,0.7124 1.54767,1.5955 0.71353,1.5955 -0.24254,0 -0.76207,-0.5195 -1.15451,-1.1545 z M 824,1174.6224 c 0,-0.2076 0.7875,-0.9951 1.75,-1.75 1.58606,-1.2438 1.62143,-1.2085 0.37756,0.3776 -1.30637,1.6657 -2.12756,2.1955 -2.12756,1.3724 z m 14.40451,-1.7769 c -0.44208,-0.7153 -0.27432,-0.8831 0.44098,-0.441 1.15275,0.7124 1.54767,1.5955 0.71353,1.5955 -0.24254,0 -0.76207,-0.5195 -1.15451,-1.1545 z m -10.07118,-1.5122 c 0.36667,-0.3666 0.96667,-0.3666 1.33334,0 0.36666,0.3667 0.0667,0.6667 -0.66667,0.6667 -0.73333,0 -1.03333,-0.3 -0.66667,-0.6667 z m 6,0 c 0.36667,-0.3666 0.96667,-0.3666 1.33334,0 0.36666,0.3667 0.0667,0.6667 -0.66667,0.6667 -0.73333,0 -1.03333,-0.3 -0.66667,-0.6667 z m -3,-1 c 0.36667,-0.3666 0.96667,-0.3666 1.33334,0 0.36666,0.3667 0.0667,0.6667 -0.66667,0.6667 -0.73333,0 -1.03333,-0.3 -0.66667,-0.6667 z M 1126.3099,1161.5 c 0.01,-3.3 0.1923,-4.5294 0.4148,-2.7321 0.2226,1.7974 0.218,4.4974 -0.01,6 -0.2281,1.5027 -0.4102,0.032 -0.4046,-3.2679 z m -209.80282,-2.4885 c -0.35034,-0.5669 0.0511,-0.7346 0.94098,-0.3931 1.73242,0.6648 2.04939,1.3816 0.61096,1.3816 -0.51754,0 -1.21592,-0.4448 -1.55194,-0.9885 z m 8.22625,-0.1356 c 0.67834,-0.6834 1.48524,-0.9907 1.79313,-0.6828 0.30789,0.3079 -0.24711,0.8671 -1.23333,1.2426 -1.4252,0.5427 -1.54006,0.4278 -0.5598,-0.5598 z M 914,1157.5 c 0,-0.275 0.225,-0.5 0.5,-0.5 0.275,0 0.5,0.225 0.5,0.5 0,0.275 -0.225,0.5 -0.5,0.5 -0.275,0 -0.5,-0.225 -0.5,-0.5 z m -2.59549,-1.6545 c -0.44208,-0.7153 -0.27432,-0.8831 0.44098,-0.441 1.15275,0.7124 1.54767,1.5955 0.71353,1.5955 -0.24254,0 -0.76207,-0.5195 -1.15451,-1.1545 z M 928,1155.5 c 0,-0.275 0.225,-0.5 0.5,-0.5 0.275,0 0.5,0.225 0.5,0.5 0,0.275 -0.225,0.5 -0.5,0.5 -0.275,0 -0.5,-0.225 -0.5,-0.5 z m -23.28175,-3.9202 c -5.90269,-4.0859 -7.30717,-5.5178 -2.9529,-3.0106 3.35854,1.9338 9.12562,6.3738 8.23465,6.3397 -0.275,-0.01 -2.65179,-1.5086 -5.28175,-3.3291 z m 222.47665,0.9202 c 0.02,-1.65 0.2445,-2.2039 0.4981,-1.231 0.2535,0.973 0.2369,2.323 -0.037,3 -0.2739,0.6771 -0.4813,-0.119 -0.461,-1.769 z m 116.0371,-0.5 c 0,-1.925 0.2058,-2.7125 0.4573,-1.75 0.2516,0.9625 0.2516,2.5375 0,3.5 -0.2515,0.9625 -0.4573,0.175 -0.4573,-1.75 z m -314.15305,0.4167 c 0.048,-1.165 0.28494,-1.4019 0.60416,-0.6042 0.28887,0.7219 0.25335,1.5844 -0.0789,1.9167 -0.33229,0.3323 -0.56864,-0.2584 -0.52522,-1.3125 z M 1057.1949,1146.5 c 0.02,-1.65 0.2445,-2.2039 0.4981,-1.231 0.2535,0.973 0.2369,2.323 -0.037,3 -0.2739,0.6771 -0.4813,-0.119 -0.461,-1.769 z m 255.9549,0.375 c -0.082,-1.4437 -0.3733,-4.1437 -0.6464,-6 -0.4966,-3.375 -0.4966,-3.375 0.5561,-0.019 0.5791,1.846 0.87,4.546 0.6465,6 -0.4063,2.6436 -0.4063,2.6436 -0.5562,0.019 z M 1242,1146 c 0,-0.7333 0.3,-1.0333 0.6667,-0.6667 0.3666,0.3667 0.3666,0.9667 0,1.3334 C 1242.3,1147.0333 1242,1146.7333 1242,1146 Z m -346,-0.5 c 0,-0.275 0.225,-0.5 0.5,-0.5 0.275,0 0.5,0.225 0.5,0.5 0,0.275 -0.225,0.5 -0.5,0.5 -0.275,0 -0.5,-0.225 -0.5,-0.5 z m 232,0 c 0,-0.275 0.225,-0.5 0.5,-0.5 0.275,0 0.5,0.225 0.5,0.5 0,0.275 -0.225,0.5 -0.5,0.5 -0.275,0 -0.5,-0.225 -0.5,-0.5 z m -746.657,-1.2653 c -1.04962,-0.6665 43.23787,-0.6314 71.657,0.057 6.325,0.1531 -6.95,0.3683 -29.5,0.4782 -22.55,0.1098 -41.52065,-0.1309 -42.157,-0.535 z m 512.06151,-0.3892 c -0.44208,-0.7153 -0.27432,-0.8831 0.44098,-0.441 1.15275,0.7124 1.54767,1.5955 0.71353,1.5955 -0.24254,0 -0.76207,-0.5195 -1.15451,-1.1545 z m -428.07118,-0.5122 c 0.36667,-0.3666 0.96667,-0.3666 1.33334,0 0.36666,0.3667 0.0667,0.6667 -0.66667,0.6667 -0.73333,0 -1.03333,-0.3 -0.66667,-0.6667 z M 1129,1143.5 c 0,-0.275 0.225,-0.5 0.5,-0.5 0.275,0 0.5,0.225 0.5,0.5 0,0.275 -0.225,0.5 -0.5,0.5 -0.275,0 -0.5,-0.225 -0.5,-0.5 z m 111.5643,-1.2069 c -0.5427,-1.4252 -0.4278,-1.54 0.5598,-0.5598 0.6834,0.6784 0.9907,1.4853 0.6828,1.7932 -0.3079,0.3078 -0.8671,-0.2472 -1.2426,-1.2334 z M 376.87244,1141.25 c -1.24387,-1.5861 -1.2085,-1.6214 0.37756,-0.3776 1.66575,1.3064 2.19548,2.1276 1.37244,2.1276 -0.20765,0 -0.99515,-0.7875 -1.75,-1.75 z M 468.5,1142 c 0.33992,-0.55 0.84303,-1 1.11803,-1 0.275,0 0.22189,0.45 -0.11803,1 -0.33992,0.55 -0.84303,1 -1.11803,1 -0.275,0 -0.22189,-0.45 0.11803,-1 z m 421.90451,-0.1545 c -0.44208,-0.7153 -0.27432,-0.8831 0.44098,-0.441 1.15275,0.7124 1.54767,1.5955 0.71353,1.5955 -0.24254,0 -0.76207,-0.5195 -1.15451,-1.1545 z M 1058.1579,1140 c 0,-1.375 0.227,-1.9375 0.5044,-1.25 0.2774,0.6875 0.2774,1.8125 0,2.5 -0.2774,0.6875 -0.5044,0.125 -0.5044,-1.25 z m 71.8421,1.5 c 0,-0.275 0.225,-0.5 0.5,-0.5 0.275,0 0.5,0.225 0.5,0.5 0,0.275 -0.225,0.5 -0.5,0.5 -0.275,0 -0.5,-0.225 -0.5,-0.5 z m -242.59549,-1.6545 c -0.44208,-0.7153 -0.27432,-0.8831 0.44098,-0.441 0.63498,0.3924 1.15451,0.912 1.15451,1.1545 0,0.8342 -0.88305,0.4392 -1.59549,-0.7135 z m -416.6733,-1.9257 c 0.35361,-1.3522 0.8069,-1.8055 1.05655,-1.0565 0.24048,0.7214 -0.0382,1.7871 -0.61931,2.3683 -0.74207,0.742 -0.87221,0.3516 -0.43724,-1.3118 z m 767.14119,0.3302 c -1.2438,-1.5861 -1.2085,-1.6214 0.3776,-0.3776 1.6657,1.3064 2.1955,2.1276 1.3724,2.1276 -0.2076,0 -0.9951,-0.7875 -1.75,-1.75 z m -863.24886,-0.7887 c -0.34295,-0.8937 -0.58486,-2.3756 -0.53759,-3.2931 0.0473,-0.9175 0.4824,-0.3408 0.96694,1.2815 0.94266,3.1563 0.60928,4.7183 -0.42935,2.0116 z M 885,1138.5 c 0,-0.275 0.225,-0.5 0.5,-0.5 0.275,0 0.5,0.225 0.5,0.5 0,0.275 -0.225,0.5 -0.5,0.5 -0.275,0 -0.5,-0.225 -0.5,-0.5 z m 247.5,-0.5 c 0.3399,-0.55 0.843,-1 1.118,-1 0.275,0 0.2219,0.45 -0.118,1 -0.3399,0.55 -0.843,1 -1.118,1 -0.275,0 -0.2219,-0.45 0.118,-1 z M 882,1136.5 c 0,-0.275 0.225,-0.5 0.5,-0.5 0.275,0 0.5,0.225 0.5,0.5 0,0.275 -0.225,0.5 -0.5,0.5 -0.275,0 -0.5,-0.225 -0.5,-0.5 z m 253,0 c 0,-0.275 0.225,-0.5 0.5,-0.5 0.275,0 0.5,0.225 0.5,0.5 0,0.275 -0.225,0.5 -0.5,0.5 -0.275,0 -0.5,-0.225 -0.5,-0.5 z m 100,0 c 0,-0.275 0.225,-0.5 0.5,-0.5 0.275,0 0.5,0.225 0.5,0.5 0,0.275 -0.225,0.5 -0.5,0.5 -0.275,0 -0.5,-0.225 -0.5,-0.5 z m -357,-2.5894 c -2.15377,-1.7616 -2.1961,-1.8963 -0.30569,-0.9723 1.20687,0.5898 2.47092,1.52 2.80901,2.0671 0.90258,1.4604 0.29641,1.1953 -2.50332,-1.0948 z M 1138,1135 c 0.825,-0.5332 2.175,-0.9446 3,-0.9144 0.9891,0.036 0.8187,0.3477 -0.5,0.9144 -2.7491,1.1813 -4.328,1.1813 -2.5,0 z m 92.5,0 c -1.3187,-0.5667 -1.4891,-0.8782 -0.5,-0.9144 0.825,-0.03 2.175,0.3812 3,0.9144 1.828,1.1813 0.2491,1.1813 -2.5,0 z m 80.5789,-0.5833 c 0.048,-1.165 0.285,-1.4019 0.6042,-0.6042 0.2889,0.7219 0.2534,1.5844 -0.079,1.9167 -0.3323,0.3323 -0.5687,-0.2584 -0.5253,-1.3125 z M 472.28601,1130.5 c 0.008,-2.75 0.20172,-3.7563 0.43157,-2.2363 0.22986,1.5201 0.22371,3.7701 -0.0136,5 -0.23736,1.23 -0.42542,-0.014 -0.41792,-2.7637 z M 1059,1134 c 0,-0.7333 0.3,-1.0333 0.6667,-0.6667 0.3666,0.3667 0.3666,0.9667 0,1.3334 C 1059.3,1135.0333 1059,1134.7333 1059,1134 Z m 86.75,-0.7057 c 1.2375,-0.2384 3.2625,-0.2384 4.5,0 1.2375,0.2383 0.225,0.4333 -2.25,0.4333 -2.475,0 -3.4875,-0.195 -2.25,-0.4333 z m 74,0 c 1.2375,-0.2384 3.2625,-0.2384 4.5,0 1.2375,0.2383 0.225,0.4333 -2.25,0.4333 -2.475,0 -3.4875,-0.195 -2.25,-0.4333 z m -47.5,-1.0415 c 7.0125,-0.1719 18.4875,-0.1719 25.5,0 7.0125,0.1719 1.275,0.3125 -12.75,0.3125 -14.025,0 -19.7625,-0.1406 -12.75,-0.3125 z M 373.232,1129 c 0,-1.925 0.2058,-2.7125 0.45733,-1.75 0.25152,0.9625 0.25152,2.5375 0,3.5 -0.25153,0.9625 -0.45733,0.175 -0.45733,-1.75 z m 500.17251,1.8455 c -0.44208,-0.7153 -0.27432,-0.8831 0.44098,-0.441 0.63498,0.3924 1.15451,0.912 1.15451,1.1545 0,0.8342 -0.88305,0.4392 -1.59549,-0.7135 z M 1060,1131 c 0,-0.7333 0.3,-1.0333 0.6667,-0.6667 0.3666,0.3667 0.3666,0.9667 0,1.3334 C 1060.3,1132.0333 1060,1131.7333 1060,1131 Z m 249.6235,-0.5387 c -0.9649,-2.5147 -0.6803,-3.1635 0.4986,-1.1363 0.5837,1.0038 0.8506,2.0357 0.5931,2.2931 -0.2575,0.2575 -0.7487,-0.2631 -1.0917,-1.1568 z M 871,1129.5 c 0,-0.275 0.225,-0.5 0.5,-0.5 0.275,0 0.5,0.225 0.5,0.5 0,0.275 -0.225,0.5 -0.5,0.5 -0.275,0 -0.5,-0.225 -0.5,-0.5 z m -4,-2.5894 c -2.15377,-1.7616 -2.1961,-1.8963 -0.30569,-0.9723 1.20687,0.5898 2.47092,1.52 2.80901,2.0671 0.90258,1.4604 0.29641,1.1953 -2.50332,-1.0948 z M 1061,1128 c 0,-0.7333 0.3,-1.0333 0.6667,-0.6667 0.3666,0.3667 0.3666,0.9667 0,1.3334 C 1061.3,1129.0333 1061,1128.7333 1061,1128 Z m 1.5643,-3.2931 c 0.3755,-0.9862 0.9347,-1.5412 1.2426,-1.2334 0.3079,0.3079 6e-4,1.1148 -0.6828,1.7932 -0.9876,0.9802 -1.1025,0.8654 -0.5598,-0.5598 z M 1308,1125.5 c 0,-0.275 0.225,-0.5 0.5,-0.5 0.275,0 0.5,0.225 0.5,0.5 0,0.275 -0.225,0.5 -0.5,0.5 -0.275,0 -0.5,-0.225 -0.5,-0.5 z M 473.32007,1119 c 0,-3.575 0.1815,-5.0375 0.40333,-3.25 0.22182,1.7875 0.22182,4.7125 0,6.5 -0.22183,1.7875 -0.40333,0.325 -0.40333,-3.25 z m 389.08444,4.8455 c -0.44208,-0.7153 -0.27432,-0.8831 0.44098,-0.441 0.63498,0.3924 1.15451,0.912 1.15451,1.1545 0,0.8342 -0.88305,0.4392 -1.59549,-0.7135 z M 373.32007,1118 c 0,-3.575 0.1815,-5.0375 0.40333,-3.25 0.22182,1.7875 0.22182,4.7125 0,6.5 -0.22183,1.7875 -0.40333,0.325 -0.40333,-3.25 z M 1307,1123.5 c 0,-0.275 0.225,-0.5 0.5,-0.5 0.275,0 0.5,0.225 0.5,0.5 0,0.275 -0.225,0.5 -0.5,0.5 -0.275,0 -0.5,-0.225 -0.5,-0.5 z m -448.55887,-2.0552 c -1.86402,-1.4934 -1.85176,-1.5118 0.30887,-0.4648 1.2375,0.5997 2.25,1.2995 2.25,1.5552 0,0.7652 -0.51861,0.5442 -2.55887,-1.0904 z M 1064,1121.5 c 0,-0.275 0.225,-0.5 0.5,-0.5 0.275,0 0.5,0.225 0.5,0.5 0,0.275 -0.225,0.5 -0.5,0.5 -0.275,0 -0.5,-0.225 -0.5,-0.5 z m 241.4045,-0.6545 c -0.4421,-0.7153 -0.2743,-0.8831 0.441,-0.441 0.635,0.3924 1.1545,0.912 1.1545,1.1545 0,0.8342 -0.8831,0.4392 -1.5955,-0.7135 z m -450.99999,-2 c -0.44208,-0.7153 -0.27432,-0.8831 0.44098,-0.441 0.63498,0.3924 1.15451,0.912 1.15451,1.1545 0,0.8342 -0.88305,0.4392 -1.59549,-0.7135 z M 1065,1119.5 c 0,-0.275 0.225,-0.5 0.5,-0.5 0.275,0 0.5,0.225 0.5,0.5 0,0.275 -0.225,0.5 -0.5,0.5 -0.275,0 -0.5,-0.225 -0.5,-0.5 z m 239,-1 c 0,-0.275 0.225,-0.5 0.5,-0.5 0.275,0 0.5,0.225 0.5,0.5 0,0.275 -0.225,0.5 -0.5,0.5 -0.275,0 -0.5,-0.225 -0.5,-0.5 z m -452,-1 c 0,-0.275 0.225,-0.5 0.5,-0.5 0.275,0 0.5,0.225 0.5,0.5 0,0.275 -0.225,0.5 -0.5,0.5 -0.275,0 -0.5,-0.225 -0.5,-0.5 z m -2.59549,-1.6545 c -0.44208,-0.7153 -0.27432,-0.8831 0.44098,-0.441 1.15275,0.7124 1.54767,1.5955 0.71353,1.5955 -0.24254,0 -0.76207,-0.5195 -1.15451,-1.1545 z M 1067,1116.6224 c 0,-0.2076 0.7875,-0.9951 1.75,-1.75 1.5861,-1.2438 1.6214,-1.2085 0.3776,0.3776 -1.3064,1.6657 -2.1276,2.1955 -2.1276,1.3724 z m 234.405,-1.8724 c -1.905,-2.25 -1.905,-2.25 0.345,-0.345 2.1144,1.7902 2.7052,2.595 1.905,2.595 -0.1898,0 -1.2023,-1.0125 -2.25,-2.25 z M 847,1114.5 c 0,-0.275 0.225,-0.5 0.5,-0.5 0.275,0 0.5,0.225 0.5,0.5 0,0.275 -0.225,0.5 -0.5,0.5 -0.275,0 -0.5,-0.225 -0.5,-0.5 z m -2.59549,-1.6545 c -0.44208,-0.7153 -0.27432,-0.8831 0.44098,-0.441 0.63498,0.3924 1.15451,0.912 1.15451,1.1545 0,0.8342 -0.88305,0.4392 -1.59549,-0.7135 z M 1070,1112.5 c 0,-0.275 0.225,-0.5 0.5,-0.5 0.275,0 0.5,0.225 0.5,0.5 0,0.275 -0.225,0.5 -0.5,0.5 -0.275,0 -0.5,-0.225 -0.5,-0.5 z m -228.59549,-1.6545 c -0.44208,-0.7153 -0.27432,-0.8831 0.44098,-0.441 0.63498,0.3924 1.15451,0.912 1.15451,1.1545 0,0.8342 -0.88305,0.4392 -1.59549,-0.7135 z m 454.03259,-2.0955 c -2.9371,-3.25 -2.9371,-3.25 0.3129,-0.3129 1.7875,1.6154 3.25,3.0779 3.25,3.25 0,0.7726 -0.8251,0.092 -3.5629,-2.9371 z M 1072,1110.5 c 0,-0.275 0.225,-0.5 0.5,-0.5 0.275,0 0.5,0.225 0.5,0.5 0,0.275 -0.225,0.5 -0.5,0.5 -0.275,0 -0.5,-0.225 -0.5,-0.5 z m -237.5,-3.0778 c -2.2,-1.3141 -3.55,-2.3944 -3,-2.4006 0.55,-0.01 2.8,1.0973 5,2.4523 2.2,1.355 3.55,2.4353 3,2.4006 -0.55,-0.035 -2.8,-1.1382 -5,-2.4523 z m 241.4541,0.1331 c 0.7701,-0.9279 2.783,-2.3897 4.4731,-3.2484 3.8112,-1.9364 3.203,-1.2238 -1.9263,2.2571 -2.1709,1.4731 -3.3169,1.9192 -2.5468,0.9913 z m 213.487,-3.1105 c -1.864,-1.4934 -1.8517,-1.5118 0.3089,-0.4648 1.2375,0.5997 2.25,1.2995 2.25,1.5552 0,0.7652 -0.5186,0.5442 -2.5589,-1.0904 z M 827,1104 c -0.825,-0.5332 -1.05,-0.9694 -0.5,-0.9694 0.55,0 1.675,0.4362 2.5,0.9694 0.825,0.5332 1.05,0.9694 0.5,0.9694 -0.55,0 -1.675,-0.4362 -2.5,-0.9694 z m -5.1875,-1.6831 c 0.72187,-0.2889 1.58438,-0.2534 1.91667,0.079 0.33229,0.3323 -0.25834,0.5687 -1.3125,0.5253 -1.16495,-0.048 -1.4019,-0.285 -0.60417,-0.6042 z M 1084,1102.5 c 0,-0.275 0.225,-0.5 0.5,-0.5 0.275,0 0.5,0.225 0.5,0.5 0,0.275 -0.225,0.5 -0.5,0.5 -0.275,0 -0.5,-0.225 -0.5,-0.5 z m 200.5071,-0.4885 c -0.3504,-0.5669 0.051,-0.7346 0.941,-0.3931 1.7324,0.6648 2.0493,1.3816 0.6109,1.3816 -0.5175,0 -1.2159,-0.4448 -1.5519,-0.9885 z M 341.5,1101 l -31,-0.5435 30.69098,-0.2283 c 19.63196,-0.146 30.91369,0.1321 31.30902,0.7718 0.33992,0.55 0.47898,0.8973 0.30902,0.7718 C 372.63906,1101.6462 358.55,1101.2989 341.5,1101 Z m 133.3647,-0.2659 c 0.42189,-0.4212 13.56242,-0.6458 29.20119,-0.4989 l 28.43411,0.2669 -29.20118,0.4989 c -16.06065,0.2745 -28.85601,0.1544 -28.43412,-0.2669 z M 539,1101 c -5.5,-0.674 -5.5,-0.674 -0.30902,-0.837 2.85504,-0.09 5.4691,0.287 5.80902,0.837 0.33992,0.55 0.47898,0.9267 0.30902,0.837 -0.16996,-0.09 -2.78402,-0.4663 -5.80902,-0.837 z m 71.76845,-0.1684 c 0.5811,-0.5812 1.64682,-0.8598 2.36826,-0.6194 0.74895,0.2497 0.29565,0.703 -1.05655,1.0566 -1.66335,0.435 -2.05378,0.3048 -1.31171,-0.4372 z m 141,0 c 0.5811,-0.5812 1.64682,-0.8598 2.36826,-0.6194 0.74895,0.2497 0.29565,0.703 -1.05655,1.0566 -1.66335,0.435 -2.05378,0.3048 -1.31171,-0.4372 z m 63.98155,0.5061 c 0.6875,-0.2774 1.8125,-0.2774 2.5,0 0.6875,0.2774 0.125,0.5044 -1.25,0.5044 -1.375,0 -1.9375,-0.227 -1.25,-0.5044 z m 115.01845,-0.5061 c 0.5811,-0.5812 1.64682,-0.8598 2.36826,-0.6194 0.74895,0.2497 0.29565,0.703 -1.05655,1.0566 -1.66335,0.435 -2.05378,0.3048 -1.31171,-0.4372 z M 996,1101 c -2.32726,-0.7453 -2.34861,-0.8075 -0.30902,-0.9003 1.20504,-0.055 2.4691,0.3503 2.80902,0.9003 0.33992,0.55 0.47898,0.9551 0.30902,0.9003 C 998.63906,1101.8455 997.375,1101.4404 996,1101 Z m 90,0.5 c 0,-0.275 0.225,-0.5 0.5,-0.5 0.275,0 0.5,0.225 0.5,0.5 0,0.275 -0.225,0.5 -0.5,0.5 -0.275,0 -0.5,-0.225 -0.5,-0.5 z m -454.25,-1.2484 c 9.4875,-0.1644 25.0125,-0.1644 34.5,0 9.4875,0.1644 1.725,0.2988 -17.25,0.2988 -18.975,0 -26.7375,-0.1344 -17.25,-0.2988 z m 140.5,0 c 7.0125,-0.1719 18.4875,-0.1719 25.5,0 7.0125,0.1719 1.275,0.3125 -12.75,0.3125 -14.025,0 -19.7625,-0.1406 -12.75,-0.3125 z m 40.08333,0.081 c 0.36667,-0.3666 0.96667,-0.3666 1.33334,0 0.36666,0.3667 0.0667,0.6667 -0.66667,0.6667 -0.73333,0 -1.03333,-0.3 -0.66667,-0.6667 z m 137.97784,-0.082 c 8.14615,-0.1683 21.19615,-0.1679 29,9e-4 7.80386,0.1687 1.13883,0.3064 -14.81117,0.3059 -15.95,-5e-4 -22.33497,-0.1385 -14.18883,-0.3068 z m 138.02213,0.082 c 0.3667,-0.3666 0.9667,-0.3666 1.3334,0 0.3666,0.3667 0.067,0.6667 -0.6667,0.6667 -0.7333,0 -1.0333,-0.3 -0.6667,-0.6667 z m 193,0 c 0.3667,-0.3666 0.9667,-0.3666 1.3334,0 0.3666,0.3667 0.067,0.6667 -0.6667,0.6667 -0.7333,0 -1.0333,-0.3 -0.6667,-0.6667 z M 1092,1099 c 0.825,-0.5332 2.175,-0.9446 3,-0.9144 0.9891,0.036 0.8187,0.3477 -0.5,0.9144 -2.7491,1.1813 -4.328,1.1813 -2.5,0 z m 185,0 c -0.825,-0.5332 -1.05,-0.9694 -0.5,-0.9694 0.55,0 1.675,0.4362 2.5,0.9694 0.825,0.5332 1.05,0.9694 0.5,0.9694 -0.55,0 -1.675,-0.4362 -2.5,-0.9694 z m -178.1875,-1.6831 c 0.7219,-0.2889 1.5844,-0.2534 1.9167,0.079 0.3323,0.3323 -0.2584,0.5687 -1.3125,0.5253 -1.165,-0.048 -1.4019,-0.285 -0.6042,-0.6042 z m 171.9375,0.021 c 0.6875,-0.2774 1.8125,-0.2774 2.5,0 0.6875,0.2774 0.125,0.5044 -1.25,0.5044 -1.375,0 -1.9375,-0.227 -1.25,-0.5044 z m -167.9375,-1.0208 c 0.7219,-0.2889 1.5844,-0.2534 1.9167,0.079 0.3323,0.3323 -0.2584,0.5687 -1.3125,0.5253 -1.165,-0.048 -1.4019,-0.285 -0.6042,-0.6042 z m 164,0 c 0.7219,-0.2889 1.5844,-0.2534 1.9167,0.079 0.3323,0.3323 -0.2584,0.5687 -1.3125,0.5253 -1.165,-0.048 -1.4019,-0.285 -0.6042,-0.6042 z m -158.0508,-1.0242 c 1.2439,-0.2392 3.0439,-0.2301 4,0.02 0.956,0.2503 -0.062,0.446 -2.2617,0.4349 -2.2,-0.011 -2.9823,-0.2159 -1.7383,-0.4551 z m 150.4883,0.018 c 0.9625,-0.2516 2.5375,-0.2516 3.5,0 0.9625,0.2515 0.175,0.4573 -1.75,0.4573 -1.925,0 -2.7125,-0.2058 -1.75,-0.4573 z m -142,-1 c 0.9625,-0.2516 2.5375,-0.2516 3.5,0 0.9625,0.2515 0.175,0.4573 -1.75,0.4573 -1.925,0 -2.7125,-0.2058 -1.75,-0.4573 z m 132.5117,-0.018 c 1.2439,-0.2392 3.0439,-0.2301 4,0.02 0.956,0.2503 -0.062,0.446 -2.2617,0.4349 -2.2,-0.011 -2.9823,-0.2159 -1.7383,-0.4551 z m -124.498,-1.0103 c 1.5201,-0.2298 3.7701,-0.2237 5,0.014 1.23,0.2373 -0.014,0.4254 -2.7637,0.4179 -2.75,-0.01 -3.7563,-0.2017 -2.2363,-0.4316 z m 116.498,0.01 c 1.2439,-0.2392 3.0439,-0.2301 4,0.02 0.956,0.2503 -0.062,0.446 -2.2617,0.4349 -2.2,-0.011 -2.9823,-0.2159 -1.7383,-0.4551 z m -91.9725,-1.0341 c 3.459,-0.1958 8.859,-0.1942 12,0 3.1409,0.1978 0.3108,0.358 -6.2892,0.356 -6.6,0 -9.1699,-0.1638 -5.7108,-0.3596 z m 60,0 c 3.459,-0.1958 8.859,-0.1942 12,0 3.1409,0.1978 0.3108,0.358 -6.2892,0.356 -6.6,0 -9.1699,-0.1638 -5.7108,-0.3596 z M 681.5,972.31758 c -27.92209,-3.56246 -47.03131,-7.00907 -66.38619,-11.97366 -5.2876,-1.35628 -12.79766,-3.28094 -16.68903,-4.27701 -3.89137,-0.99608 -8.61637,-2.32022 -10.5,-2.94255 C 586.04115,952.50204 575.725,949.11621 565,945.60028 526.17928,932.87388 486.34786,915.40346 456,897.79189 439.37358,888.14319 438.55798,887.64858 435.40561,885.30272 433.70369,884.03622 432.00052,883 431.62078,883 430.87109,883 405.892,865.65208 399,860.34493 354.77162,826.28715 317.88523,782.85494 296.36802,739.5 c -7.32156,-14.75217 -9.23172,-19.41182 -17.4223,-42.5 -3.63687,-10.25186 -9.10929,-35.53617 -11.18156,-51.66241 -1.61757,-12.58781 -1.63512,-51.12685 -0.0286,-62.83759 7.07292,-51.55857 24.18024,-94.13335 55.24998,-137.5 31.41227,-43.84475 79.04461,-84.67321 135.80079,-116.40279 15.95581,-8.9201 40.31532,-20.8584 55.43101,-27.16605 3.45547,-1.44194 7.85768,-3.29971 9.78268,-4.12839 1.925,-0.82868 4.4,-1.85694 5.5,-2.28502 7.7924,-3.03251 11.09198,-4.27778 19.5,-7.35933 25.42753,-9.31924 54.25164,-17.57903 85.5,-24.50075 8.25581,-1.82871 15.99887,-3.19244 35,-6.1643 3.85,-0.60216 14.65,-1.34974 24,-1.6613 26.69729,-0.8896 39.32491,2.10018 45.79835,10.84344 2.4753,3.34324 3.32299,11.41178 1.71182,16.29368 -3.20242,9.70343 -17.55014,19.18731 -45.26017,29.9171 -3.7125,1.43754 -9.5625,3.70298 -13,5.03432 -3.4375,1.33134 -13,4.96718 -21.25,8.07965 -8.25,3.11248 -18.825,7.25285 -23.5,9.20083 -11.75149,4.89662 -43.71125,20.57175 -52.35793,25.6797 -3.92814,2.32052 -7.81707,4.5341 -8.64207,4.91907 -2.6841,1.25247 -16.33152,10.03418 -27.03641,17.39711 -40.12007,27.59501 -74.18372,65.8577 -83.06374,93.30303 -3.58093,11.06753 -3.71915,20.57203 -0.39994,27.5 4.04528,8.44342 16.14989,17.32601 31.18625,22.88506 12.86995,4.75812 41.18438,9.54118 65.81384,11.11771 95.8087,6.13272 243.8362,7.90421 382,4.57151 101.51338,-2.44864 145.79688,-6.4438 172.99998,-15.60768 13.9425,-4.6968 28.4182,-15.5484 31.9195,-23.92826 2.0748,-4.96557 2.0503,-17.10038 -0.049,-24.38443 -8.1222,-28.18047 -46.835,-71.34219 -88.4368,-98.60006 C 1022.8209,353.92688 995.93407,340.80099 938,319.0507 c -33.78227,-12.68294 -48.41815,-19.80868 -56.20262,-27.36324 -11.04041,-10.71436 -9.95315,-25.32036 2.33904,-31.42231 7.30657,-3.62704 11.72886,-4.41636 27.88459,-4.97703 19.90128,-0.69065 34.92379,0.95419 66.47899,7.27891 39.4273,7.90256 90.5387,23.86978 123,38.42527 2.75,1.23308 7.475,3.34641 10.5,4.69628 41.8675,18.68283 85.952,45.6015 117.5,71.74734 12.297,10.1913 39.13,36.42838 48.0229,46.95631 36.8668,43.64529 61.1194,94.51237 68.9466,144.60777 0.9024,5.775 2.0659,12.93755 2.5856,15.91678 1.2448,7.13578 1.2174,50.65537 -0.037,58.46792 -4.6435,28.92445 -4.1066,26.11113 -7.5611,39.6153 -8.3993,32.83389 -25.1615,68.37917 -45.7424,97 -22.1956,30.86612 -53.9399,62.58539 -86.2148,86.14666 -35.5872,25.97932 -80.9198,50.61007 -123,66.83003 -4.4,1.696 -8.9,3.48823 -10,3.98274 -9.9181,4.45874 -48.472,16.61147 -70.1128,22.10052 -68.84561,17.4623 -117.32883,18.68274 -129.10012,3.24978 -2.31333,-3.03293 -2.69884,-4.49876 -2.69884,-10.26173 0,-5.97178 0.35297,-7.20333 3.15759,-11.01702 7.20628,-9.79901 21.74395,-17.64104 57.75417,-31.1542 36.17906,-13.57651 53.7202,-20.91936 73.1834,-30.63509 35.3497,-17.64609 67.135,-38.56254 89.2657,-58.74169 27.0364,-24.65234 46.6772,-51.03302 52.4384,-70.43316 2.5032,-8.42916 2.1486,-20.07541 -0.7877,-25.86989 -9.0716,-17.90189 -37.9289,-28.57729 -89.5998,-33.14629 -52.3109,-4.6256 -184.93765,-7.52581 -302,-6.60399 -41.525,0.32699 -79.325,0.82497 -84,1.10663 -4.675,0.28166 -21.325,0.94445 -37,1.47287 -99.39228,3.35062 -131.76997,7.96957 -155.28419,22.1526 -17.52565,10.57092 -21.79439,24.91478 -13.78522,46.32123 2.02635,5.41593 4.47469,9.86426 10.90828,19.81905 18.11669,28.03218 47.55981,55.45946 84.83421,79.02597 20.69676,13.0854 44.73617,25.93992 65.32692,34.93206 1.925,0.84066 5.525,2.41515 8,3.49886 4.62888,2.02682 18.27926,7.45777 28,11.1401 46.84404,17.7451 57.36935,22.48658 66.78149,30.08396 6.86073,5.53792 10.21851,11.52067 10.21851,18.20694 0,10.62214 -6.85937,16.68434 -21.91792,19.37069 -6.90862,1.23245 -31.08736,1.69617 -38.58208,0.73995 z m -2.67772,-30.08841 c 0.38815,-2.73497 -2.8021,-4.2912 -16.32228,-7.96216 -18.11293,-4.91796 -26.80303,-7.60338 -45.5,-14.06042 -18.39278,-6.35199 -25.19443,-8.8462 -30.36725,-11.13587 C 584.35974,908.0646 580.025,906.23931 577,905.01453 559.9039,898.09253 527.08888,881.69285 510.85594,871.95827 450.65079,835.85445 405.55701,792.8578 384.52241,751.5 c -11.13059,-21.88473 -16.27568,-38.20519 -17.22299,-54.63212 -0.96305,-16.69995 2.62386,-26.16471 14.16151,-37.36788 5.14208,-4.99301 9.62168,-8.19681 15.62403,-11.17424 27.07087,-13.42839 50.14314,-16.03088 171.41504,-19.33515 48.04035,-1.30895 430.86541,-1.31039 479,-0.002 65.9505,1.79292 94.6516,3.0757 113,5.05045 32.1168,3.45659 40.6407,5.46794 57,13.45019 19.077,9.30828 28.9485,21.35987 31.6314,38.61708 0.978,6.29061 0.8954,9.1111 -0.511,17.4485 -0.9227,5.46973 -2.1048,11.29497 -2.627,12.94497 -9.5896,30.30047 -19.3009,48.17648 -39.3861,72.5 -6.7583,8.18451 -23.8046,25.71801 -32.1073,33.02514 -16.619,14.62614 -32.0272,26.37123 -50,38.11293 -12.5754,8.21558 -16.9649,10.88239 -26.5,16.10004 -2.475,1.35432 -7.65,4.19 -11.5,6.30149 -27.2836,14.96341 -80.2528,37.10321 -104,43.46943 -1.65,0.44233 -7.5,2.14122 -13,3.7753 -5.5,1.63408 -14.38439,4.22473 -19.7431,5.757 -10.49797,3.00179 -13.94263,5.32503 -11.77247,7.93991 2.09825,2.52824 9.5191,1.79345 30.51557,-3.02155 3.85,-0.88289 8.575,-1.96202 10.5,-2.39806 18.57434,-4.20734 54.8974,-15.76363 72.5,-23.0661 1.65,-0.6845 3.9,-1.58522 5,-2.00158 2.4975,-0.94534 15.191,-6.42095 22.5,-9.70588 7.0309,-3.15994 35.2534,-17.2675 40.5,-20.24474 40.9568,-23.2413 75.9277,-49.44811 103.022,-77.20355 14.6795,-15.03762 16.1578,-16.7751 24.9627,-29.33978 8.8966,-12.69553 15.1629,-23.13663 22.206,-37 5.7649,-11.34748 16.678,-37.47699 18.3767,-44 0.4297,-1.65 2.1253,-7.82227 3.768,-13.71616 17.4317,-62.54488 10.2845,-127.31821 -21.0898,-191.13061 -3.7444,-7.61573 -8.3689,-16.28697 -10.2768,-19.26942 -1.9078,-2.98246 -3.4688,-5.61737 -3.4688,-5.85536 0,-0.82563 -12.5326,-18.39997 -18.7377,-26.27576 -8.4597,-10.73737 -33.0111,-34.54498 -48.2623,-46.80011 -33.298,-26.75674 -70.9548,-49.64298 -113.5,-68.98051 -19.5905,-8.90423 -55.1563,-22.02449 -73.25,-27.02201 -2.8875,-0.79753 -7.8375,-2.16623 -11,-3.04156 -3.1625,-0.87532 -8.45,-2.24624 -11.75,-3.04648 -3.3,-0.80023 -8.475,-2.08527 -11.5,-2.85563 -16.12559,-4.10663 -28.65475,-5.45164 -30.8,-3.30639 -3.67162,3.67162 0.49961,5.69669 24.3,11.7973 12.57662,3.22368 50.0086,15.89341 65.5,22.17001 13.7009,5.55114 40.8645,17.79712 48.3953,21.81772 2.8076,1.49894 9.6047,5.11406 15.1047,8.03361 14.6576,7.78066 41.0401,24.71308 55.9651,35.91867 30.7308,23.07256 56.632,49.11071 73.1758,73.56269 8.1787,12.08817 13.3604,21.98888 20.4114,39 2.7606,6.66018 6.1147,18.91515 7.5734,27.67074 3.5379,21.23647 -2.4005,36.816 -18.6015,48.80127 -16.9915,12.57002 -38.0893,18.63331 -75.0242,21.56116 -4.125,0.32699 -9.525,0.79061 -12,1.03028 -10.3721,1.00438 -51.2157,2.56573 -89.5,3.42137 -53.0753,1.18621 -437.70943,1.19582 -490.5,0.0122 C 488.70235,597.33131 456.81336,595.28293 429,590.3896 396.25136,584.628 372.64146,567.48987 368.12438,546.20078 363.59242,524.84156 374.5745,489.1716 395.12571,458.5 420.60963,420.46662 467.14147,380.27625 519.5,351.07575 534.30404,342.8195 572.55937,324 574.53823,324 c 0.26596,0 2.39116,-0.85307 4.72267,-1.89572 12.28007,-5.49163 48.26123,-18.64741 57.7391,-21.11113 11.08896,-2.88251 38.07641,-10.96367 39.93428,-11.95798 1.43177,-0.76626 2.07979,-1.92417 1.8764,-3.35283 -0.28527,-2.00386 -0.858,-2.17609 -7.00301,-2.10589 -7.14558,0.0816 -10.43293,0.69545 -32.30767,6.03259 -21.9205,5.3483 -27.41324,6.92147 -46.31157,13.26405 -25.28908,8.48742 -30.80255,10.64447 -54.68843,21.39592 -57.17012,25.73327 -111.18109,62.39013 -146.65093,99.53095 -37.11912,38.86779 -63.80565,93.64808 -73.4144,150.70004 -2.32838,13.82476 -2.70623,18.99095 -2.77931,38 -0.0891,23.17883 0.82028,32.87576 4.92348,52.5 8.27661,39.58424 25.29255,78.86541 48.35368,111.62406 20.87946,29.65956 60.1097,64.59417 102.56748,91.33656 6.1823,3.89397 9.55484,5.88658 22,12.99834 36.23902,20.7087 84.08766,40.78504 122,51.18877 2.2,0.60371 6.025,1.68496 8.5,2.40278 18.19889,5.27818 42.61013,10.32037 49,10.12105 4.89621,-0.15273 5.53538,-0.42085 5.82228,-2.44239 z"
         id="path78" />
      <path
         style="fill:#0b0708"
         d="m 1133.5942,1252.1525 c -0.288,-0.4662 -5.3777,-1.1423 -11.3103,-1.5027 -9.818,-0.5963 -18.9017,-2.0202 -28.2839,-4.4338 -14.7957,-3.8062 -28.8085,-17.1946 -33.1853,-31.7068 -5.0124,-16.6197 -5.1803,-69.5387 -0.2633,-83.0092 6.8003,-18.63 18.2276,-28.6885 37.9486,-33.4028 17.85,-4.2671 36.8601,-5.4309 88,-5.3876 76.2331,0.065 95.6517,3.3179 111.485,18.6773 13.0872,12.6956 16.5342,27.1784 15.7355,66.1131 -0.5109,24.9069 -0.8269,27.9403 -3.8549,37 -7.9053,23.6533 -25.2298,33.8111 -61.6519,36.1483 -5.6574,0.363 -10.5215,1.0407 -10.809,1.5059 -0.684,1.1068 -103.1264,1.1051 -103.8105,0 z m 88.1219,-43.7713 c 15.0403,-1.0548 20.317,-5.7342 22.2189,-19.7036 1.3343,-9.8003 1.3409,-26.9938 0.014,-36.1766 -2.165,-14.9825 -6.2429,-18.0867 -25.6221,-19.5043 -16.1482,-1.1813 -50.0612,-1.2093 -65.9436,-0.054 -18.5133,1.3462 -22.8025,4.5952 -25.2677,19.1396 -1.4375,8.4812 -1.4313,27.714 0.012,37.419 2.2393,15.0562 6.8899,18.0765 29.9294,19.4379 14.8221,0.8759 48.3415,0.5868 64.6589,-0.5576 z M 302.24329,1172.25 302.5,1101.5 l 34.7764,-0.263 c 27.30916,-0.2065 34.86715,0.01 35.19903,1 0.23244,0.6947 0.58931,8.463 0.79303,17.263 0.29128,12.5818 0.73306,16.6907 2.0679,19.2331 3.28279,6.2524 3.39231,6.2669 47.46476,6.2669 25.87298,0 40.98438,-0.3779 42.98367,-1.0748 6.05841,-2.112 7.17221,-5.9337 8.0959,-27.7786 L 474.5,1101.5 h 35 35 l 0.25671,70.7628 0.25671,70.7628 -35.25671,-0.2628 L 474.5,1242.5 l -0.681,-17.7759 c -0.73788,-19.2607 -1.52705,-23.1613 -5.42768,-26.827 -2.55063,-2.3971 -2.55063,-2.3971 -44.40048,-2.6784 -41.84985,-0.2814 -41.84985,-0.2814 -45.34563,2.7879 -4.59095,4.031 -5.47484,8.4342 -5.59572,27.8762 -0.0526,8.4606 -0.33682,15.7731 -0.63159,16.25 -0.29476,0.477 -16.26239,0.8672 -35.48362,0.8672 h -34.9477 z m 308,0 0.25671,-70.75 h 37 37 l 0.25671,70.75 0.25671,70.75 H 647.5 609.98658 Z m 141,0.013 0.25671,-70.763 29.5,-0.3057 c 34.04779,-0.3527 41.17492,0.3914 51.68397,5.3961 9.43909,4.4952 38.30331,22.426 70.75214,43.9521 11.06054,7.3374 15.01946,9.4541 17.66017,9.4422 3.67855,-0.017 4.60338,-0.4702 6.90372,-3.3861 1.21689,-1.5426 1.59437,-6.9217 2,-28.5 l 0.5,-26.5986 h 34 34 v 70.5 70.5 l -35.60017,0.2625 -35.60016,0.2624 -3.66501,-5.9377 c -2.01576,-3.2658 -6.60137,-8.6285 -10.19025,-11.917 -11.94072,-10.9415 -70.47348,-51.3061 -78.27979,-53.9822 -4.18794,-1.4358 -8.94817,0.3065 -11.50685,4.2116 -1.85464,2.8305 -2.65436,16.5705 -3.00335,51.6004 l -0.15442,15.5 -34.75671,0.263 -34.75671,0.2629 z"
         id="path77" />
    </g>
  </g>
</svg>
